<svg xmlns="http://www.w3.org/2000/svg" width="14.278" height="15.753" viewBox="0 0 14.278 15.753">
  <g id="Icon_feather-share-2" data-name="Icon feather-share-2" transform="translate(-4 -2.5)">
    <path id="Tracé_22171" data-name="Tracé 22171" d="M26.926,5.213A2.213,2.213,0,1,1,24.713,3a2.213,2.213,0,0,1,2.213,2.213Z" transform="translate(-9.148)" fill="none" stroke="#1c1c1c" stroke-linecap="round" stroke-linejoin="round" stroke-width="1"/>
    <path id="Tracé_22172" data-name="Tracé 22172" d="M8.926,15.713A2.213,2.213,0,1,1,6.713,13.5,2.213,2.213,0,0,1,8.926,15.713Z" transform="translate(0 -5.336)" fill="none" stroke="#1c1c1c" stroke-linecap="round" stroke-linejoin="round" stroke-width="1"/>
    <path id="Tracé_22173" data-name="Tracé 22173" d="M26.926,26.213A2.213,2.213,0,1,1,24.713,24,2.213,2.213,0,0,1,26.926,26.213Z" transform="translate(-9.148 -10.673)" fill="none" stroke="#1c1c1c" stroke-linecap="round" stroke-linejoin="round" stroke-width="1"/>
    <path id="Tracé_22174" data-name="Tracé 22174" d="M12.885,20.265,17.923,23.2" transform="translate(-4.262 -8.775)" fill="none" stroke="#1c1c1c" stroke-linecap="round" stroke-linejoin="round" stroke-width="1"/>
    <path id="Tracé_22175" data-name="Tracé 22175" d="M17.916,9.765,12.885,12.7" transform="translate(-4.262 -3.438)" fill="none" stroke="#1c1c1c" stroke-linecap="round" stroke-linejoin="round" stroke-width="1"/>
  </g>
</svg>
